PathFileType	4	(X/Y/Z)	/Users/niels/Desktop/University/Third Semester/Perception and Action/Exam/Gymnastics Motion Tracking/Code for Gym Tracking/Analyzed Data/Webcam_Backflip/id3_5_baseline_Sports2D/id3_5_baseline_Sports2D_px_person00.trc
DataRate	CameraRate	NumFrames	NumMarkers	Units	OrigDataRate	OrigDataStartFrame	OrigNumFrames
29.81132075471698	29.81132075471698	12	22	m	29.81132075471698	59	159
Frame#	Time	Hip			RHip			RKnee			RAnkle			RBigToe			RSmallToe			RHeel			LHip			LKnee			LAnkle			LBigToe			LSmallToe			LHeel			Neck			Head			Nose			RShoulder			RElbow			RWrist			LShoulder			LElbow			LWrist		
		X1	Y1	Z1	X2	Y2	Z2	X3	Y3	Z3	X4	Y4	Z4	X5	Y5	Z5	X6	Y6	Z6	X7	Y7	Z7	X8	Y8	Z8	X9	Y9	Z9	X10	Y10	Z10	X11	Y11	Z11	X12	Y12	Z12	X13	Y13	Z13	X14	Y14	Z14	X15	Y15	Z15	X16	Y16	Z16	X17	Y17	Z17	X18	Y18	Z18	X19	Y19	Z19	X20	Y20	Z20	X21	Y21	Z21	X22	Y22	Z22
59	1.9791139240506328	1.0401767692526622	-0.3380063374410892	0.0	1.0438756615873512	-0.33654054215427315	0.0	0.9940286014891072	-0.25437560160370093	0.0	1.0780134044162717	-0.25216877411847016	0.0	1.0777952990836346	-0.21416297221212696	0.0	1.086694517540866	-0.21902466777485488	0.0	1.088485378086625	-0.2573077761227582	0.0	1.0353833823393512	-0.3373637502245481	0.0	0.9892833373213333	-0.2598145333242141	0.0	1.073264055754755	-0.25224836875109685	0.0	1.0834230737902109	-0.21236622617851866	0.0	1.0836247664247642	-0.21761905643137597	0.0	1.0882132715940742	-0.25877321823049215	0.0	0.9180296958722082	-0.3544683399704777	0.0	0.8622138982187403	-0.3761568524654223	0.0	0.8850742332177042	-0.346281303687079	0.0	0.9313160195650448	-0.34170256877842575	0.0	0.9931253860252105	-0.29229293130108264	0.0	0.9956768643002265	-0.24017525769182507	0.0	0.9291893281910419	-0.3523517772269121	0.0	0.9788348039165724	-0.30306746293048653	0.0	1.0043786850643281	-0.26106724615663696	0.0
60	2.0126582278481013	1.0443212073136343	-0.32189322497528866	0.0	1.04671250017908	-0.32091197945537325	0.0	0.9732124084311027	-0.26335921358566633	0.0	1.0482126268154819	-0.23198191079554853	0.0	1.0319780798512765	-0.1965671449626654	0.0	1.0419463273999907	-0.1984524544134759	0.0	1.0595324956771852	-0.23147741306582015	0.0	1.0403984839960638	-0.3216376794005282	0.0	0.9718239421836149	-0.26821737926036776	0.0	1.0437480807004886	-0.23340698748467673	0.0	1.0381673571489431	-0.19541472200218404	0.0	1.0388081434846215	-0.20045529472267598	0.0	1.0606438373128442	-0.2319282231960881	0.0	0.9414213064830559	-0.3733680099755406	0.0	0.8983736549912392	-0.4085249574248797	0.0	0.9128472009430487	-0.37974561876508145	0.0	0.9515270975937283	-0.35908970379990646	0.0	0.9969024414923081	-0.300229820456706	0.0	0.9862436965986278	-0.2556569066927092	0.0	0.9525366762378902	-0.3689650543157582	0.0	0.9867338547875143	-0.31194615901240175	0.0	1.0035699961834392	-0.27432643663555834	0.0
61	2.0462025316455694	1.0435465229289465	-0.3069830032054067	0.0	1.0443587251454973	-0.30709036121702066	0.0	0.9585027585259256	-0.2832800484227375	0.0	1.0124789068320814	-0.22772227633897615	0.0	0.9822436787444226	-0.20252345415371464	0.0	0.991861207828731	-0.20099179814359272	0.0	1.0228728045415756	-0.22137728983501556	0.0	1.0412160026545616	-0.3071779221197695	0.0	0.9610792938362158	-0.2856094623711221	0.0	1.0091369889507211	-0.2294457118448914	0.0	0.9878946338256654	-0.20078950716721983	0.0	0.9894642986589309	-0.20496876452028176	0.0	1.0259680118894854	-0.2200814264997264	0.0	0.9709383044725931	-0.39087780304083897	0.0	0.94461424608518	-0.4376435267483285	0.0	0.9489528889797567	-0.4119248316378047	0.0	0.9757699014022624	-0.3765403791456511	0.0	0.9992521460274637	-0.3118427811999082	0.0	0.9765808123316899	-0.2764941340307389	0.0	0.9817760681678125	-0.38371129278413446	0.0	0.9979544499072447	-0.32231445043958046	0.0	1.00411568474445	-0.29212026649645206	0.0
62	2.079746835443038	1.0381600140558958	-0.2955665604021199	0.0	1.0373278028423991	-0.29723495126101934	0.0	0.9492379720173979	-0.31088103015332985	0.0	0.9743538182698044	-0.23860749623901517	0.0	0.9341026016842664	-0.2291877268174833	0.0	0.9421164159107863	-0.22428890612194374	0.0	0.982188645183365	-0.2267836097996741	0.0	1.0377128509380993	-0.29615295682544257	0.0	0.955630320768936	-0.3090905517677808	0.0	0.9728832044311763	-0.23993356195475446	0.0	0.9387440405944986	-0.22618237546324707	0.0	0.9417183829295804	-0.2287730196739527	0.0	0.9882743392052787	-0.2238492831242518	0.0	1.0045015439826717	-0.40514263906204895	0.0	0.9977058187106306	-0.46038260539562487	0.0	0.9908527490357921	-0.4390486095335095	0.0	1.0027963934772641	-0.3921308963904623	0.0	1.001243360164535	-0.3262194645630279	0.0	0.9692923640050842	-0.3018884355982547	0.0	1.014462337039966	-0.39471535966370114	0.0	1.0122811595435695	-0.33254404549522437	0.0	1.0062768561573463	-0.3129261669244197	0.0
63	2.113291139240506	1.0293193879761282	-0.2898017198361241	0.0	1.0268763234079625	-0.2930866304762749	0.0	0.944896089750954	-0.3427504666208915	0.0	0.9375805187540052	-0.26381922886875836	0.0	0.8931323475501877	-0.27300532937813526	0.0	0.898519718607056	-0.26524144708297404	0.0	0.9414270790756847	-0.24765761342688627	0.0	1.030581537833604	-0.2906162809904564	0.0	0.9541245555225004	-0.3364658483776262	0.0	0.9385945274778409	-0.26455591892757785	0.0	0.8969481771336288	-0.2687613458637845	0.0	0.9014252320113387	-0.2690690027642231	0.0	0.9515182515560929	-0.24378557202991766	0.0	1.0390328297194722	-0.4149807059064645	0.0	1.052533277323835	-0.4746419737967928	0.0	1.0346398024396035	-0.458477271543546	0.0	1.0306890504031883	-0.404145836789429	0.0	1.0039233197238533	-0.34250613605577573	0.0	0.9660619692130609	-0.3311802395042763	0.0	1.047080517476771	-0.4011075889803085	0.0	1.0285994413027146	-0.34181235485222233	0.0	1.0095463269782328	-0.3359769886384533	0.0
64	2.1468354430379746	1.018444018336324	-0.2917181172499528	0.0	1.014524373558689	-0.2961887751424121	0.0	0.9452683178114593	-0.376225653992712	0.0	0.906182462549247	-0.3032993586377052	0.0	0.8647523461441401	-0.33095629903759605	0.0	0.8667661304664158	-0.3212832573288189	0.0	0.9049530569089901	-0.2848436331650817	0.0	1.020874863250745	-0.2925168899279879	0.0	0.9556672989249073	-0.3664786833756817	0.0	0.9098886554187217	-0.30353703746375094	0.0	0.8681887600334862	-0.32605075472766454	0.0	0.873668830609256	-0.32348957439008863	0.0	0.9190771162462693	-0.2808271083088233	0.0	1.071154634540301	-0.41992612303807014	0.0	1.1036101915604475	-0.4794383194064714	0.0	1.0761067935893773	-0.4688643519142306	0.0	1.0572142437814862	-0.4115485912897549	0.0	1.0081089298339023	-0.3601892777819216	0.0	0.9676754537466274	-0.3640489833534641	0.0	1.075970247516568	-0.402928292465652	0.0	1.0445889930726626	-0.3505852382887277	0.0	1.0130074181359905	-0.3613017453618147	0.0
65	2.180379746835443	1.0069487101402845	-0.30272712116037104	0.0	1.0018975511630952	-0.3075890523096697	0.0	0.9497839690458094	-0.4098366636219512	0.0	0.8842757798951995	-0.35675115830859944	0.0	0.8530727460936846	-0.39983143135533916	0.0	0.8514000440222206	-0.3896087411819428	0.0	0.8774979136627797	-0.3387282460032229	0.0	1.0098103624501493	-0.3032316023435488	0.0	0.9593843084955526	-0.3985814112648572	0.0	0.8899941080506264	-0.35648119205743056	0.0	0.8562615276069373	-0.3949667436064251	0.0	0.8616266810841728	-0.38924917573548984	0.0	0.893622506740248	-0.33493392978606135	0.0	1.0978397601583707	-0.42053487612355234	0.0	1.1464915317735915	-0.4755644346832872	0.0	1.111644791385801	-0.47072703526231924	0.0	1.0801609967437866	-0.41460255272877505	0.0	1.0141802585434179	-0.3790754593880672	0.0	0.9741687787982142	-0.40008780347873363	0.0	1.0982511368389833	-0.4012751968763357	0.0	1.0566848524301145	-0.36076372916088295	0.0	1.0157869274994207	-0.38926130720309365	0.0
66	2.213924050632911	0.9959951685980462	-0.323070503007087	0.0	0.9904878748878099	-0.3274773819096975	0.0	0.9569920122685839	-0.44348733896267084	0.0	0.8751561783952728	-0.42208227097753975	0.0	0.8594768042292422	-0.4751444759853834	0.0	0.8543470488179422	-0.46588925383022983	0.0	0.8632909947356512	-0.40732084790850825	0.0	0.9986140024908448	-0.3230698886916347	0.0	0.964025412117631	-0.4327910081705076	0.0	0.881138159941908	-0.4209337134772889	0.0	0.8618636388816737	-0.47057472648029586	0.0	0.8656228674879239	-0.4621229820601811	0.0	0.8776868533192524	-0.40346396730062883	0.0	1.116972670872957	-0.41853755563772266	0.0	1.1785903816760834	-0.46586391617447265	0.0	1.1388664280169614	-0.46671231940862234	0.0	1.0976498311186278	-0.4148905334273499	0.0	1.0219602129433811	-0.3990098228710964	0.0	0.9855771691373642	-0.4378796906327084	0.0	1.1124802479925902	-0.3983339747478596	0.0	1.0619845106155004	-0.37458476007971414	0.0	1.0181448260694013	-0.419608806633629	0.0
67	2.2474683544303797	0.9862829205498234	-0.3519233289710454	0.0	0.9812885676342833	-0.35537326287016413	0.0	0.9649767702665646	-0.47837284277840686	0.0	0.8799952856796254	-0.4951463915481249	0.0	0.8819270831731864	-0.5515090083970515	0.0	0.8739834333740902	-0.5445035328320752	0.0	0.8644944245523384	-0.4858360513182487	0.0	0.9882678633275161	-0.3514087523535322	0.0	0.9682196965636483	-0.46964379226800695	0.0	0.8839263518093994	-0.4924405435357093	0.0	0.8824094946956387	-0.5466110791779445	0.0	0.883183105395014	-0.5367457136803172	0.0	0.8736689285287226	-0.4812851343590205	0.0	1.1277214296748712	-0.4165068185236518	0.0	1.1991690726612119	-0.45418744315972875	0.0	1.1568451449636672	-0.4606569800354676	0.0	1.1084961972454062	-0.4147071777623453	0.0	1.0308722348605133	-0.4196100052802575	0.0	1.0024282161063753	-0.47455795516208565	0.0	1.1186973326759557	-0.3969305984778373	0.0	1.0609291111572767	-0.3926085705401839	0.0	1.0223696524899075	-0.45064828364809834	0.0
68	2.281012658227848	0.9782295322006686	-0.38794875008563273	0.0	0.9747418655784567	-0.3904843943343741	0.0	0.972391987566502	-0.5161881616997006	0.0	0.8970382336297514	-0.5708483910456505	0.0	0.9153071042156042	-0.6241177094040855	0.0	0.9053071769257068	-0.6200798753007453	0.0	0.8799419808841182	-0.567958490142362	0.0	0.9794937324369967	-0.38716763058303244	0.0	0.9713219208786369	-0.5098061361498202	0.0	0.8969328938595325	-0.5659483382138243	0.0	0.9127833250114661	-0.6175665448844984	0.0	0.9097629298668555	-0.6079333111115541	0.0	0.8821746193559267	-0.5622913658160021	0.0	1.130498264085749	-0.4172698295327083	0.0	1.2087710424683333	-0.4439082162611022	0.0	1.165896855086754	-0.45615603637385116	0.0	1.1124768753162022	-0.4165433243875655	0.0	1.0401466226078113	-0.44026732367475274	0.0	1.0247419786883378	-0.5065133343157201	0.0	1.1179636495210354	-0.3998623223403745	0.0	1.0571009340872206	-0.4136644212688937	0.0	1.0316662238051402	-0.47974827920535545	0.0
69	2.3145569620253164	0.972262473030195	-0.4296518368542231	0.0	0.9709163231946351	-0.4316833401820042	0.0	0.9790444797868876	-0.5579040125710155	0.0	0.9218135881376744	-0.6443828111233639	0.0	0.9526915384871747	-0.6898343243645086	0.0	0.9412139421438769	-0.6887702965129482	0.0	0.9050305701370744	-0.6474668083824325	0.0	0.9729492971923267	-0.42903636630929604	0.0	0.9739337230497863	-0.5534937299035927	0.0	0.9167453632456274	-0.6371062821836017	0.0	0.9465997864443357	-0.6804120389939531	0.0	0.9396619746003806	-0.6721544763432636	0.0	0.900534548707198	-0.6408027631246327	0.0	1.1265501347724831	-0.42317452321552873	0.0	1.208596037608273	-0.4371912346669773	0.0	1.167114491877396	-0.4557276804168398	0.0	1.1102838579679193	-0.42258354371258305	0.0	1.0487510852032569	-0.46038346518123296	0.0	1.0508205880935926	-0.5306227035031427	0.0	1.111899276681643	-0.4092842916929741	0.0	1.0544113764877419	-0.4375103882743875	0.0	1.0478814165461254	-0.5055984349853743	0.0
70	2.348101265822785	0.968734751128577	-0.47529731583428847	0.0	0.9695342639247956	-0.47724505074884466	0.0	0.9855513712976331	-0.6030484671658073	0.0	0.9484000230662668	-0.711945328806348	0.0	0.9872929237431243	-0.7471844796879864	0.0	0.9745560168844304	-0.748450013608781	0.0	0.9330600988148604	-0.7193199754231728	0.0	0.9691707135849488	-0.4753247650103799	0.0	0.9772853769226554	-0.6000213772838661	0.0	0.9386297062585744	-0.7026515307664977	0.0	0.9776116595578145	-0.7343962468454728	0.0	0.9670641179208889	-0.7279928079098171	0.0	0.9233825677843892	-0.7122603116954193	0.0	1.117550862986913	-0.4353398103504061	0.0	1.200119333601818	-0.4350896221068822	0.0	1.1619847185393677	-0.46061183493534996	0.0	1.1032003933301808	-0.4340511461447784	0.0	1.0553411677524513	-0.4797048600397673	0.0	1.0773572462765508	-0.545307449383062	0.0	1.102398532788284	-0.4261686088237258	0.0	1.0553415577346787	-0.4658843833376329	0.0	1.0703382894697138	-0.5293372288637179	0.0
